<svg width="21" height="20" viewBox="0 0 21 20" fill="none" xmlns="http://www.w3.org/2000/svg">
<path d="M10.5011 0.35C5.1764 0.35 0.85 4.67401 0.85 9.99892C0.85 15.3238 5.17622 19.65 10.5011 19.65C15.826 19.65 20.15 15.3236 20.15 9.99892C20.15 4.67418 15.8258 0.35 10.5011 0.35ZM10.5011 1.51364C15.1936 1.51364 18.9864 5.3064 18.9864 9.99892C18.9864 14.6915 15.1934 18.4864 10.5011 18.4864C5.80868 18.4864 2.01364 14.6913 2.01364 9.99892C2.01364 5.30658 5.80853 1.51364 10.5011 1.51364Z" fill="#ACB8C2" stroke="#ACB8C2" stroke-width="0.3"/>
<path d="M5.24907 8.12563C5.35651 8.01501 5.50347 7.95155 5.65767 7.94922C5.73551 7.94804 5.81279 7.9625 5.88493 7.99172C5.95708 8.02095 6.02263 8.06435 6.0777 8.11936C6.13277 8.17437 6.17624 8.23987 6.20555 8.31199C6.2347 8.38374 6.24923 8.46059 6.2483 8.53802M5.24907 8.12563L6.0983 8.53709M5.24907 8.12563C5.1419 8.23599 5.08279 8.38429 5.08466 8.53808M5.24907 8.12563L5.23466 8.53709M6.2483 8.53802C6.24829 8.53842 6.24829 8.53881 6.24828 8.53921L6.0983 8.53709M6.2483 8.53802C6.2483 8.53771 6.2483 8.5374 6.2483 8.53709H6.0983M6.2483 8.53802C6.24878 8.95078 6.5713 9.273 6.98422 9.273C7.39442 9.273 7.71956 8.94977 7.72011 8.53815M6.0983 8.53709C6.0983 9.03313 6.48814 9.423 6.98422 9.423C7.4774 9.423 7.87011 9.03228 7.87011 8.53709M7.72011 8.53815C7.72012 8.53851 7.72012 8.53886 7.72013 8.53922L7.87011 8.53709M7.72011 8.53815C7.72011 8.5378 7.72011 8.53745 7.72011 8.53709H7.87011M7.72011 8.53815C7.71917 8.46142 7.73341 8.38524 7.76203 8.31403C7.79078 8.24248 7.83346 8.17737 7.88759 8.12246C7.94174 8.06755 8.00625 8.02397 8.07736 7.99422C8.14847 7.96447 8.22481 7.94912 8.30193 7.94912C8.37906 7.94912 8.45539 7.96447 8.5265 7.99422C8.59761 8.02397 8.66212 8.06755 8.71627 8.12246C8.7704 8.17737 8.81308 8.24248 8.84183 8.31403C8.87044 8.38523 8.88469 8.46138 8.88375 8.53809M7.87011 8.53709H8.73375M8.88375 8.53809C8.88374 8.53847 8.88374 8.53884 8.88373 8.53921L8.73375 8.53709M8.88375 8.53809C8.88375 8.53776 8.88375 8.53743 8.88375 8.53709H8.73375M8.88375 8.53809C8.8832 9.58286 8.02651 10.4366 6.98422 10.4366C5.94028 10.4366 5.0852 9.58189 5.08466 8.53808M8.73375 8.53709C8.73375 9.49934 7.94413 10.2866 6.98422 10.2866C6.0228 10.2866 5.23466 9.4985 5.23466 8.53709M5.08466 8.53808C5.08467 8.53846 5.08467 8.53883 5.08468 8.53921L5.23466 8.53709M5.08466 8.53808C5.08466 8.53775 5.08466 8.53742 5.08466 8.53709H5.23466" fill="#ACB8C2" stroke="#ACB8C2" stroke-width="0.3"/>
<path d="M12.2806 8.12563C12.388 8.01501 12.535 7.95155 12.6892 7.94922C12.767 7.94804 12.8443 7.9625 12.9164 7.99172C12.9886 8.02095 13.0541 8.06435 13.1092 8.11936C13.1643 8.17437 13.2077 8.23987 13.237 8.31199C13.2662 8.38375 13.2807 8.46059 13.2798 8.53803M12.2806 8.12563L13.1298 8.53709M12.2806 8.12563C12.1734 8.23599 12.1143 8.38429 12.1162 8.53808M12.2806 8.12563L12.2662 8.53709M13.2798 8.53803C13.2798 8.53842 13.2798 8.53881 13.2798 8.53921L13.1298 8.53709M13.2798 8.53803C13.2798 8.53772 13.2798 8.53741 13.2798 8.53709H13.1298M13.2798 8.53803C13.2803 8.94972 13.6054 9.273 14.0157 9.273C14.4285 9.273 14.751 8.95084 14.7516 8.53815M13.1298 8.53709C13.1298 9.03229 13.5225 9.423 14.0157 9.423C14.5117 9.423 14.9016 9.03313 14.9016 8.53709M14.7516 8.53815C14.7516 8.53851 14.7516 8.53886 14.7516 8.53921L14.9016 8.53709M14.7516 8.53815C14.7516 8.5378 14.7516 8.53745 14.7516 8.53709H14.9016M14.7516 8.53815C14.7506 8.46142 14.7649 8.38525 14.7935 8.31403C14.8223 8.24248 14.8649 8.17737 14.9191 8.12246C14.9732 8.06755 15.0377 8.02397 15.1088 7.99422C15.1799 7.96447 15.2563 7.94912 15.3334 7.94912C15.4105 7.94912 15.4869 7.96447 15.558 7.99422C15.6291 8.02397 15.6936 8.06755 15.7477 8.12246C15.8019 8.17737 15.8446 8.24248 15.8733 8.31403C15.9019 8.38522 15.9162 8.46138 15.9152 8.53809M14.9016 8.53709H15.7652M15.9152 8.53809C15.9152 8.53847 15.9152 8.53884 15.9152 8.53921L15.7652 8.53709M15.9152 8.53809C15.9152 8.53776 15.9152 8.53743 15.9152 8.53709H15.7652M15.9152 8.53809C15.9147 9.58189 15.0596 10.4366 14.0157 10.4366C12.9734 10.4366 12.1167 9.58285 12.1162 8.53808M15.7652 8.53709C15.7652 9.4985 14.9771 10.2866 14.0157 10.2866C13.0558 10.2866 12.2662 9.49934 12.2662 8.53709M12.1162 8.53808C12.1162 8.53846 12.1162 8.53883 12.1162 8.53921L12.2662 8.53709M12.1162 8.53808C12.1162 8.53775 12.1162 8.53742 12.1162 8.53709H12.2662" fill="#ACB8C2" stroke="#ACB8C2" stroke-width="0.3"/>
<path d="M15.3562 12.312L15.3562 12.312C15.4586 12.3147 15.5584 12.3444 15.6456 12.3981C15.7329 12.4517 15.8044 12.5275 15.8529 12.6176C15.9015 12.7078 15.9255 12.8092 15.9223 12.9115C15.9192 13.0136 15.8893 13.1129 15.8356 13.1997C15.8354 13.2 15.8352 13.2003 15.835 13.2006L15.7076 13.1215C14.6454 14.8871 12.7079 16.0693 10.5009 16.0693C8.29202 16.0693 6.35418 14.8871 5.29408 13.1211L15.3562 12.312ZM15.3562 12.312C15.2519 12.3092 15.1487 12.3346 15.0575 12.3854C14.9666 12.436 14.891 12.5101 14.8385 12.5998C13.9532 14.0709 12.3445 15.0557 10.5009 15.0557C8.65508 15.0557 7.0469 14.0709 6.16376 12.6005C6.12525 12.5341 6.07397 12.4759 6.01286 12.4294C5.95136 12.3825 5.88116 12.3485 5.80638 12.3291C5.73158 12.3097 5.65366 12.3054 5.57717 12.3164C5.5007 12.3275 5.42718 12.3536 5.36092 12.3934C5.29466 12.4332 5.23699 12.4858 5.19127 12.5481C5.14556 12.6104 5.1127 12.6811 5.09464 12.7563C5.07657 12.8314 5.07366 12.9094 5.08605 12.9857C5.09838 13.0615 5.12559 13.1341 5.16611 13.1993L15.3562 12.312Z" fill="#ACB8C2" stroke="#ACB8C2" stroke-width="0.3"/>
</svg>
