<svg width="38" height="39" viewBox="0 0 38 39" fill="none" xmlns="http://www.w3.org/2000/svg">
<g filter="url(#filter0_d_1_165)">
<path d="M32.3334 30.3333H5.66669C5.12002 30.3333 4.66669 29.88 4.66669 29.3333C4.66669 28.7867 5.12002 28.3333 5.66669 28.3333H32.3334C32.88 28.3333 33.3334 28.7867 33.3334 29.3333C33.3334 29.88 32.88 30.3333 32.3334 30.3333Z" fill="#999999"/>
<path d="M22 30.3333H16C15.4533 30.3333 15 29.88 15 29.3333V5.33332C15 3.03999 16.2667 1.66666 18.4 1.66666H19.6C21.7333 1.66666 23 3.03999 23 5.33332V29.3333C23 29.88 22.5467 30.3333 22 30.3333ZM17 28.3333H21V5.33332C21 3.79999 20.28 3.66666 19.6 3.66666H18.4C17.72 3.66666 17 3.79999 17 5.33332V28.3333Z" fill="#999999"/>
<path d="M12.3333 30.3333H7C6.45333 30.3333 6 29.88 6 29.3333V13.3333C6 11.04 7.17333 9.66666 9.13333 9.66666H10.2C12.16 9.66666 13.3333 11.04 13.3333 13.3333V29.3333C13.3333 29.88 12.88 30.3333 12.3333 30.3333ZM8 28.3333H11.3333V13.3333C11.3333 11.6667 10.6 11.6667 10.2 11.6667H9.13333C8.73333 11.6667 8 11.6667 8 13.3333V28.3333Z" fill="#999999"/>
<path d="M31 30.3333H25.6667C25.12 30.3333 24.6667 29.88 24.6667 29.3333V20C24.6667 17.7067 25.84 16.3333 27.8 16.3333H28.8667C30.8267 16.3333 32 17.7067 32 20V29.3333C32 29.88 31.5467 30.3333 31 30.3333ZM26.6667 28.3333H30V20C30 18.3333 29.2667 18.3333 28.8667 18.3333H27.8C27.4 18.3333 26.6667 18.3333 26.6667 20V28.3333Z" fill="#999999"/>
</g>
<defs>
<filter id="filter0_d_1_165" x="-1" y="0" width="40" height="40" filterUnits="userSpaceOnUse" color-interpolation-filters="sRGB">
<feFlood flood-opacity="0" result="BackgroundImageFix"/>
<feColorMatrix in="SourceAlpha" type="matrix" values="0 0 0 0 0 0 0 0 0 0 0 0 0 0 0 0 0 0 127 0" result="hardAlpha"/>
<feOffset dy="4"/>
<feGaussianBlur stdDeviation="2"/>
<feComposite in2="hardAlpha" operator="out"/>
<feColorMatrix type="matrix" values="0 0 0 0 0 0 0 0 0 0 0 0 0 0 0 0 0 0 0.25 0"/>
<feBlend mode="normal" in2="BackgroundImageFix" result="effect1_dropShadow_1_165"/>
<feBlend mode="normal" in="SourceGraphic" in2="effect1_dropShadow_1_165" result="shape"/>
</filter>
</defs>
</svg>
