<svg width="32" height="32" viewBox="0 0 32 32" fill="none" xmlns="http://www.w3.org/2000/svg">
<path d="M27.8124 11.1598L18.5724 3.77314C17.1457 2.62648 14.839 2.62648 13.4257 3.75981L4.1857 11.1598C3.1457 11.9865 2.47903 13.7331 2.7057 15.0397L4.47903 25.6531C4.79903 27.5464 6.61236 29.0797 8.53236 29.0797H23.4657C25.3724 29.0797 27.199 27.5331 27.519 25.6531L29.2924 15.0397C29.5057 13.7331 28.839 11.9865 27.8124 11.1598ZM15.999 20.6664C14.159 20.6664 12.6657 19.1731 12.6657 17.3331C12.6657 15.4931 14.159 13.9997 15.999 13.9997C17.839 13.9997 19.3324 15.4931 19.3324 17.3331C19.3324 19.1731 17.839 20.6664 15.999 20.6664Z" fill="white"/>
</svg>
