<svg width="32" height="32" viewBox="0 0 32 32" fill="none" xmlns="http://www.w3.org/2000/svg">
<path d="M16.1607 18.04C16.134 18.04 16.094 18.04 16.0673 18.04C16.0273 18.04 15.974 18.04 15.934 18.04C12.9073 17.9467 10.6406 15.5867 10.6406 12.68C10.6406 9.71997 13.054 7.30664 16.014 7.30664C18.974 7.30664 21.3873 9.71997 21.3873 12.68C21.374 15.6 19.094 17.9467 16.2007 18.04C16.174 18.04 16.174 18.04 16.1607 18.04ZM16.0007 9.29331C14.134 9.29331 12.6273 10.8133 12.6273 12.6666C12.6273 14.4933 14.054 15.9733 15.8673 16.04C15.9073 16.0267 16.0407 16.0267 16.174 16.04C17.9607 15.9467 19.3607 14.48 19.374 12.6666C19.374 10.8133 17.8673 9.29331 16.0007 9.29331Z" fill="#999999"/>
<path d="M16.0011 30.3331C12.4144 30.3331 8.98774 28.9997 6.33441 26.5731C6.09441 26.3597 5.98774 26.0397 6.01441 25.7331C6.18774 24.1464 7.17441 22.6664 8.81441 21.5731C12.7877 18.9331 19.2277 18.9331 23.1877 21.5731C24.8277 22.6797 25.8144 24.1464 25.9877 25.7331C26.0277 26.0531 25.9077 26.3597 25.6677 26.5731C23.0144 28.9997 19.5877 30.3331 16.0011 30.3331ZM8.10774 25.4664C10.3211 27.3197 13.1077 28.3331 16.0011 28.3331C18.8944 28.3331 21.6811 27.3197 23.8944 25.4664C23.6544 24.6531 23.0144 23.8664 22.0677 23.2264C18.7877 21.0397 13.2277 21.0397 9.92107 23.2264C8.97441 23.8664 8.34774 24.6531 8.10774 25.4664Z" fill="#999999"/>
<path d="M16 30.3333C8.09332 30.3333 1.66666 23.9067 1.66666 16C1.66666 8.09332 8.09332 1.66666 16 1.66666C23.9067 1.66666 30.3333 8.09332 30.3333 16C30.3333 23.9067 23.9067 30.3333 16 30.3333ZM16 3.66666C9.19999 3.66666 3.66666 9.19999 3.66666 16C3.66666 22.8 9.19999 28.3333 16 28.3333C22.8 28.3333 28.3333 22.8 28.3333 16C28.3333 9.19999 22.8 3.66666 16 3.66666Z" fill="#999999"/>
</svg>
