<svg width="32" height="32" viewBox="0 0 32 32" fill="none" xmlns="http://www.w3.org/2000/svg">
<path d="M12.0126 28.3336C11.7593 28.3336 11.5059 28.2403 11.3059 28.0403L4.62594 21.3603C4.23927 20.9736 4.23927 20.3336 4.62594 19.9469C5.0126 19.5603 5.6526 19.5603 6.03927 19.9469L12.7193 26.6269C13.1059 27.0136 13.1059 27.6536 12.7193 28.0403C12.5193 28.2269 12.2659 28.3336 12.0126 28.3336Z" fill="white"/>
<path d="M12.013 28.3333C11.4663 28.3333 11.013 27.88 11.013 27.3333V4.66666C11.013 4.11999 11.4663 3.66666 12.013 3.66666C12.5597 3.66666 13.013 4.11999 13.013 4.66666V27.3333C13.013 27.88 12.5597 28.3333 12.013 28.3333Z" fill="white"/>
<path d="M26.6794 12.3466C26.426 12.3466 26.1727 12.2533 25.9727 12.0533L19.2927 5.37326C18.906 4.98659 18.906 4.34659 19.2927 3.95992C19.6794 3.57326 20.3194 3.57326 20.706 3.95992L27.386 10.6399C27.7727 11.0266 27.7727 11.6666 27.386 12.0533C27.186 12.2533 26.9327 12.3466 26.6794 12.3466Z" fill="white"/>
<path d="M19.9869 28.3333C19.4403 28.3333 18.9869 27.88 18.9869 27.3333V4.66666C18.9869 4.11999 19.4403 3.66666 19.9869 3.66666C20.5336 3.66666 20.9869 4.11999 20.9869 4.66666V27.3333C20.9869 27.88 20.5469 28.3333 19.9869 28.3333Z" fill="white"/>
</svg>
