<svg width="583" height="583" viewBox="0 0 583 583" fill="none" xmlns="http://www.w3.org/2000/svg">
<path d="M197.474 71.0854C134.781 97.8648 86.6783 150.47 64.0818 216.861C56.1995 240.179 51.4985 274.077 52.5253 300.458C53.1376 317.626 57.5667 347.402 59.4163 346.923C59.8273 346.816 63.8691 343.795 68.2915 340.126C104.618 310.202 158.581 277.242 201.545 258.538C208.65 255.49 215.242 252.575 216.292 251.973C217.548 251.319 218.404 249.123 218.709 245.644C220.563 224.877 235.364 200.752 253.796 188.517C287.816 165.771 333.42 172.482 359.774 203.922C366.643 212.23 366.746 212.203 371.248 211.804C421.667 206.629 469.638 207.243 517.043 213.707C518.873 214 518.021 210.712 512.476 197.783C496.546 160.022 469.077 124.704 437.799 101.34C386.513 62.9841 327.642 46.5531 265.882 53.242C246.873 55.2091 214.942 63.5961 197.474 71.0854Z" fill="#232323"/>
<path d="M272.964 216.775C259.911 225.643 252.337 239.998 252.268 255.807C252.016 277.256 268.35 296.27 290.503 300.506C297.878 301.884 299.062 301.797 309.749 299.026C320.744 296.176 321.231 295.94 327.849 290.167C339.426 280.257 345.352 265.891 344.063 250.763C342.453 231.441 327.273 214.76 307.357 210.272C299.928 208.689 298.615 208.7 288.465 211.003C279.986 212.981 276.599 214.298 272.964 216.775Z" fill="#232323"/>
<path d="M215.868 307.023C169.837 328.277 125.286 356.933 88.4112 388.973C82.5084 394.122 77.6293 398.567 77.4504 398.723C77.2982 398.982 79.5244 403.339 82.5042 408.489C115.94 466.824 171.088 508.236 236.984 524.271C261.805 530.338 291.894 532.189 318.876 529.252C336.368 527.349 368.53 519.012 384.127 512.337C424.681 494.915 458.873 468.177 484.399 433.815C510.968 397.977 528.122 351.201 530.928 306.609C531.826 291.462 531.256 270.226 529.874 268.281C529.014 267.079 507.436 263.79 486.538 261.86C458.064 259.043 426.419 258.802 395.927 260.895C386.226 261.545 378.147 262.104 377.941 262.158C377.838 262.184 376.895 266.157 375.958 271.006C371.844 292.36 358.237 311.788 339.083 323.772C328.994 330.116 311.761 335.131 299.815 335.158C275.743 335.366 253.465 325.57 237.527 307.659C233.938 303.545 230.589 300.356 229.999 300.619C229.485 300.752 223.126 303.716 215.868 307.023Z" fill="#232323"/>
</svg>
