<svg width="56" height="44" viewBox="0 0 56 44" fill="none" xmlns="http://www.w3.org/2000/svg">
<path d="M27.0001 14H20.0001C19.4697 14 18.961 14.2107 18.5859 14.5858C18.2109 14.9609 18.0001 15.4696 18.0001 16V30C18.0001 30.5304 18.2109 31.0391 18.5859 31.4142C18.961 31.7893 19.4697 32 20.0001 32H34.0001C34.5306 32 35.0393 31.7893 35.4144 31.4142C35.7894 31.0391 36.0001 30.5304 36.0001 30V23" stroke="#8667F2" stroke-width="1.5" stroke-linecap="round" stroke-linejoin="round"/>
<path d="M34.5001 12.5C34.898 12.1022 35.4375 11.8787 36.0001 11.8787C36.5627 11.8787 37.1023 12.1022 37.5001 12.5C37.898 12.8978 38.1215 13.4374 38.1215 14C38.1215 14.5626 37.898 15.1022 37.5001 15.5L28.0001 25L24.0001 26L25.0001 22L34.5001 12.5Z" stroke="#8667F2" stroke-width="1.5" stroke-linecap="round" stroke-linejoin="round"/>
</svg>
