<svg width="24" height="24" viewBox="0 0 24 24" fill="none" xmlns="http://www.w3.org/2000/svg">
<path fill-rule="evenodd" clip-rule="evenodd" d="M12.0002 18.7285C17.2456 18.7285 21.4978 14.9984 21.4978 10.397C21.4978 5.79559 17.2456 2.06543 12.0002 2.06543C6.75473 2.06543 2.50247 5.79559 2.50247 10.397C2.50247 17.9884 8.83426 21.2517 12.0002 21.9344V18.7285ZM14.4053 10.4669C14.4053 9.43722 15.0945 8.56007 16.0597 8.22687C15.2165 7.09909 13.7551 6.35335 12.0936 6.35335C9.48238 6.35335 7.3656 8.19504 7.3656 10.4669C7.3656 12.7387 9.48238 14.5804 12.0936 14.5804C13.7552 14.5804 15.2166 13.8346 16.0597 12.7069C15.0945 12.3737 14.4053 11.4965 14.4053 10.4669Z" fill="#8667F2"/>
</svg>
