<svg width="24" height="27" viewBox="0 0 24 27" fill="none" xmlns="http://www.w3.org/2000/svg">
<path d="M4.66667 1L1 5.88889V23C1 23.6483 1.25754 24.2701 1.71596 24.7285C2.17438 25.1869 2.79614 25.4444 3.44444 25.4444H20.5556C21.2039 25.4444 21.8256 25.1869 22.284 24.7285C22.7425 24.2701 23 23.6483 23 23V5.88889L19.3333 1H4.66667Z" stroke="white" stroke-width="2" stroke-linecap="round" stroke-linejoin="round"/>
<path d="M1 5.88904H23" stroke="white" stroke-width="2" stroke-linecap="round" stroke-linejoin="round"/>
<path d="M16.8887 10.7777C16.8887 12.0743 16.3737 13.3178 15.4568 14.2347C14.54 15.1515 13.2965 15.6666 11.9999 15.6666C10.7032 15.6666 9.45973 15.1515 8.54288 14.2347C7.62604 13.3178 7.11096 12.0743 7.11096 10.7777" stroke="white" stroke-width="2" stroke-linecap="round" stroke-linejoin="round"/>
</svg>
