<svg width="60" height="18" viewBox="0 0 60 18" fill="none" xmlns="http://www.w3.org/2000/svg">
<g clip-path="url(#clip0_5_28)">
<path d="M60 0.216714C56.794 1.37677 53.588 2.54957 50.3671 3.70963C38.9214 7.83994 27.4607 11.983 16 16.1006C13.0487 17.1586 10.0225 18.0382 6.75656 18C4.10488 17.9618 1.91761 17.1714 0.644203 15.068C-0.239692 13.6147 -0.0898796 12.0595 0.37454 10.5297C1.09364 8.1204 2.57679 6.02975 4.35956 4.10482C5.61799 2.74079 6.95132 1.44051 8.35956 0C7.79027 1.21105 7.26593 2.25637 6.81649 3.3272C6.35207 4.44901 6.21724 5.62181 6.45694 6.78187C6.87641 8.85977 8.76405 10.2238 11.3708 10.4023C13.2884 10.5425 15.1461 10.262 16.9888 9.85411C31.1161 6.65439 45.2285 3.45467 59.3558 0.254957C59.5656 0.203966 59.7903 0.165722 60 0.127479C60 0.165722 60 0.191218 60 0.216714Z" fill="black"/>
</g>
<defs>
<clipPath id="clip0_5_28">
<rect width="60" height="18" fill="white"/>
</clipPath>
</defs>
</svg>
